<svg width="40" height="40" viewBox="0 0 40 40" fill="none" xmlns="http://www.w3.org/2000/svg">
<path d="M33 0H7C3.13401 0 0 3.13401 0 7V33C0 36.866 3.13401 40 7 40H33C36.866 40 40 36.866 40 33V7C40 3.13401 36.866 0 33 0Z" fill="#133D6F" fill-opacity="0.17"/>
<path d="M19.792 16.1279H18.668V17.1079H19.792V16.1279Z" fill="#4CB0FA"/>
<path d="M21.332 17.5H20.208V18.48H21.332V17.5Z" fill="#4CB0FA"/>
<path d="M21.332 16.1279H20.208V17.1079H21.332V16.1279Z" fill="#4CB0FA"/>
<path d="M19.792 17.5H18.668V18.48H19.792V17.5Z" fill="#4CB0FA"/>
<path d="M20.8128 19.8458C19.2558 19.8458 18.1198 20.3498 17.3988 21.3658V16.6748L14.4458 19.5718V29.9998H17.3988V25.1428C17.3988 24.2458 17.6298 23.5748 18.0848 23.1238C18.5408 22.6718 19.1518 22.4518 19.9188 22.4518C20.6058 22.4518 21.1528 22.6428 21.5688 23.0288C21.9778 23.4138 22.1858 23.9668 22.1858 24.6908V29.9998H25.1378V24.3408C25.1378 22.9388 24.7288 21.8348 23.9158 21.0388C23.0968 20.2428 22.0648 19.8458 20.8128 19.8458Z" fill="#4CB0FA"/>
<path d="M30 19.798L20 10.143L17.399 12.654V10H14.446V15.511L10 19.798H13.247L20 13.177L26.753 19.798H30Z" fill="#4CB0FA"/>
</svg>
