<svg width="19" height="18" viewBox="0 0 19 18" fill="none" xmlns="http://www.w3.org/2000/svg">
<path d="M2.54025 0.370273C2.16025 0.000273436 1.54023 0.000273436 1.15023 0.370273C0.770234 0.750273 0.770234 1.37028 1.15023 1.75028L8.31027 8.83023L1.15023 15.9103C0.770234 16.2903 0.770234 16.9003 1.15023 17.2803C1.54023 17.6603 2.16025 17.6603 2.54025 17.2803L9.69015 10.2002L16.8402 17.2803C17.2302 17.6603 17.8502 17.6603 18.2302 17.2803C18.6102 16.9003 18.6102 16.2903 18.2302 15.9103L11.0802 8.83023L18.2302 1.75028C18.6102 1.37028 18.6102 0.750273 18.2302 0.370273C17.8502 0.000273436 17.2302 0.000273436 16.8402 0.370273L9.69015 7.45023L2.54025 0.370273Z" fill="#CFD1D4"/>
</svg>
