<svg width="29" height="28" viewBox="0 0 29 28" fill="none" xmlns="http://www.w3.org/2000/svg">
<path opacity="0.4" d="M4.19482 19.5602V8.4202C4.19482 4.5502 6.34681 2.15019 10.3028 2.16019H20.8458C24.8008 2.16019 26.9648 4.56009 26.9648 8.44009V19.5602C26.9648 23.4202 24.7628 25.8401 20.7458 25.8401H10.3028C6.34681 25.8401 4.19482 23.4202 4.19482 19.5602Z" stroke="#4CB0FA" stroke-width="2.5" stroke-linecap="round" stroke-linejoin="round"/>
<path fill-rule="evenodd" clip-rule="evenodd" d="M16.204 16.6797C13.563 16.6797 11.312 17.0797 11.312 18.6697C11.312 20.2697 13.551 20.6797 16.204 20.6797C18.843 20.6797 21.096 20.2896 21.096 18.6896C21.096 17.0896 18.857 16.6797 16.204 16.6797Z" stroke="#4CB0FA" stroke-width="2.5" stroke-linecap="round" stroke-linejoin="round"/>
<path fill-rule="evenodd" clip-rule="evenodd" d="M19.3071 10.4401C19.3071 12.1501 17.9181 13.5402 16.2031 13.5402C14.4871 13.5402 13.0981 12.1501 13.0981 10.4401C13.0981 8.72006 14.4871 7.33008 16.2031 7.33008C17.9181 7.33008 19.3071 8.72006 19.3071 10.4401Z" stroke="white" stroke-width="2.5" stroke-linecap="round" stroke-linejoin="round"/>
<path d="M2.11914 8.67969H6.44914M2.11914 19.3097H6.44914" stroke="white" stroke-width="2.5" stroke-linecap="round" stroke-linejoin="round"/>
</svg>
