<svg width="35" height="35" viewBox="0 0 35 35" fill="none" xmlns="http://www.w3.org/2000/svg">
<path d="M35 17.5C35 7.83502 27.165 0 17.5 0C7.83502 0 0 7.83502 0 17.5C0 27.165 7.83502 35 17.5 35C27.165 35 35 27.165 35 17.5Z" fill="#EA3A3D" fill-opacity="0.1"/>
<path fill-rule="evenodd" clip-rule="evenodd" d="M12.4798 15.3861C12.7798 15.3651 13.0399 15.5881 13.0599 15.8861L13.4998 21.9162C13.5698 22.8822 14.3698 23.6302 15.3398 23.6302H19.6598C20.6298 23.6302 21.4298 22.8821 21.4998 21.9171L21.9397 15.8861C21.9597 15.5881 22.2198 15.3651 22.5198 15.3861C22.8198 15.4081 23.0398 15.6671 23.0198 15.9641L22.5798 21.9961C22.4698 23.5251 21.1898 24.7102 19.6598 24.7102H15.3398C13.8098 24.7102 12.5298 23.5251 12.4198 21.9951L11.9798 15.9641C11.9598 15.6671 12.1798 15.4081 12.4798 15.3861Z" fill="#EA3A3D"/>
<path fill-rule="evenodd" clip-rule="evenodd" d="M11.0098 13.6611C11.0098 13.3631 11.2498 13.1211 11.5498 13.1211H23.4497C23.7497 13.1211 23.9897 13.3631 23.9897 13.6611C23.9897 13.9591 23.7497 14.2011 23.4497 14.2011H11.5498C11.2498 14.2011 11.0098 13.9591 11.0098 13.6611Z" fill="#EA3A3D"/>
<path fill-rule="evenodd" clip-rule="evenodd" d="M16.0201 10.6709H18.9901C19.6401 10.6709 20.2101 11.1079 20.3801 11.7379C20.3801 11.7489 20.3801 11.7589 20.3801 11.7699L20.7501 13.5529C20.8001 13.8449 20.62 14.1299 20.32 14.1889C20.03 14.2489 19.75 14.0599 19.69 13.7679L19.33 12.0049C19.28 11.8549 19.1401 11.7509 18.9901 11.7509H16.0201C15.8601 11.7509 15.7201 11.8539 15.6701 12.0049L15.32 13.7669C15.26 14.0589 14.9701 14.2479 14.6801 14.1899C14.3901 14.1309 14.2001 13.8459 14.2601 13.5539L14.6201 11.7709C14.6201 11.7599 14.6201 11.7489 14.6301 11.7379C14.7901 11.1059 15.3701 10.6689 16.0201 10.6709Z" fill="#EA3A3D"/>
<path fill-rule="evenodd" clip-rule="evenodd" d="M16.1299 16.9941C16.4299 16.9941 16.6699 17.2361 16.6699 17.5341V20.7802C16.6699 21.0782 16.4299 21.3201 16.1299 21.3201C15.8399 21.3201 15.5898 21.0782 15.5898 20.7802V17.5341C15.5898 17.2361 15.8399 16.9941 16.1299 16.9941ZM18.5698 16.9941C18.8698 16.9941 19.1099 17.2361 19.1099 17.5341V20.7802C19.1099 21.0782 18.8698 21.3201 18.5698 21.3201C18.2698 21.3201 18.0299 21.0782 18.0299 20.7802V17.5341C18.0299 17.2361 18.2698 16.9941 18.5698 16.9941Z" fill="#EA3A3D"/>
</svg>
