<svg width="35" height="35" viewBox="0 0 35 35" fill="none" xmlns="http://www.w3.org/2000/svg">
<path d="M35 17.5C35 7.83502 27.165 0 17.5 0C7.83502 0 0 7.83502 0 17.5C0 27.165 7.83502 35 17.5 35C27.165 35 35 27.165 35 17.5Z" fill="#F9B959" fill-opacity="0.1"/>
<path opacity="0.4" d="M18.1499 22.9033H22.3298" stroke="#F9B959" stroke-width="1.38462" stroke-linecap="round" stroke-linejoin="round"/>
<path d="M13.6798 22.9851L14.8397 22.6491C15.4597 22.4691 15.9998 22.0831 16.3698 21.5551L20.7898 15.4212C21.3198 14.6952 21.1598 13.6782 20.4298 13.1482L19.2297 12.2732C18.5097 11.7452 17.4897 11.9052 16.9597 12.6302L12.4897 18.8321C12.1497 19.3181 11.9697 19.8982 11.9697 20.4922L11.9797 21.7221C11.9897 22.6021 12.8398 23.2301 13.6798 22.9851Z" stroke="#F9B959" stroke-width="1.38462" stroke-linecap="round" stroke-linejoin="round"/>
<path opacity="0.4" d="M16.0098 13.9561L19.8297 16.7651" stroke="#F9B959" stroke-width="1.38462" stroke-linecap="round" stroke-linejoin="round"/>
</svg>
