<svg width="34" height="30" viewBox="0 0 34 30" fill="none" xmlns="http://www.w3.org/2000/svg">
<path d="M28 0H6C2.68629 0 0 2.68629 0 6V24C0 27.3137 2.68629 30 6 30H28C31.3137 30 34 27.3137 34 24V6C34 2.68629 31.3137 0 28 0Z" fill="white" fill-opacity="0.1"/>
<path d="M9.37012 9.89545C9.37012 8.60945 10.4101 7.56641 11.7001 7.56641H22.2701C23.5601 7.56641 24.6001 8.60945 24.6001 9.89545V11.0784C24.6001 12.0044 24.2101 12.8864 23.5201 13.5074L19.2501 17.7314C18.9701 17.9844 18.8002 18.3454 18.8002 18.7234V20.4484C18.8002 20.9944 18.4701 21.4864 17.9601 21.6874L16.3301 22.3384C15.4601 22.6874 14.5001 22.0414 14.5001 21.0984V18.3015C14.5001 17.9475 14.3601 17.6074 14.1101 17.3574L10.3201 13.9865C9.71007 13.3725 9.37012 12.5414 9.37012 11.6734V9.89545Z" stroke="white" stroke-width="1.38462" stroke-linecap="round" stroke-linejoin="round"/>
</svg>
