<svg width="27" height="28" viewBox="0 0 27 28" fill="none" xmlns="http://www.w3.org/2000/svg">
<path d="M21.3272 3.49902V7.54901M20.5262 25.769H6.1692C3.6432 25.769 1.59619 23.722 1.59619 21.196V12.56C1.59619 11.333 2.14821 10.171 3.09821 9.39697L10.7712 3.14697C12.2712 1.92497 14.4242 1.92497 15.9242 3.14697L23.5962 9.39697C24.5462 10.171 25.0992 11.333 25.0992 12.56V21.196C25.0992 23.722 23.0512 25.769 20.5262 25.769Z" stroke="white" stroke-width="2.5" stroke-linecap="round" stroke-linejoin="round"/>
<path opacity="0.4" d="M9.79297 25.7689V19.6799C9.79297 17.7179 11.383 16.1279 13.345 16.1279C15.306 16.1279 16.896 17.7179 16.896 19.6799V25.7689" stroke="white" stroke-width="2.5" stroke-linecap="round" stroke-linejoin="round"/>
</svg>
