<svg width="42" height="42" viewBox="0 0 42 42" fill="none" xmlns="http://www.w3.org/2000/svg">
<path d="M28 0H14C6.26801 0 0 6.26801 0 14V28C0 35.732 6.26801 42 14 42H28C35.732 42 42 35.732 42 28V14C42 6.26801 35.732 0 28 0Z" fill="#0F1620"/>
<path d="M26 21C26 23.76 23.761 26 21 26C18.239 26 16 23.76 16 21C16 18.24 18.239 16 21 16C23.761 16 26 18.24 26 21Z" fill="#83899F"/>
<path d="M20 12C20 11.45 20.448 11 21 11C21.552 11 22 11.45 22 12V13C22 13.55 21.552 14 21 14C20.448 14 20 13.55 20 13V12Z" fill="#83899F"/>
<path d="M14.636 16.0502C15.027 16.4402 15.66 16.4402 16.05 16.0502C16.441 15.6602 16.441 15.0302 16.05 14.6402L15.343 13.9302C14.953 13.5402 14.319 13.5402 13.929 13.9302C13.538 14.3202 13.538 14.9501 13.929 15.3401L14.636 16.0502Z" fill="#83899F"/>
<path d="M28.071 13.9302C27.681 13.5402 27.047 13.5402 26.657 13.9302L25.95 14.6402C25.559 15.0302 25.559 15.6602 25.95 16.0502C26.34 16.4402 26.973 16.4402 27.364 16.0502L28.071 15.3401C28.462 14.9501 28.462 14.3202 28.071 13.9302Z" fill="#83899F"/>
<path d="M16.0502 25.9497C15.6602 25.5597 15.0272 25.5597 14.6362 25.9497L13.9292 26.6598C13.5392 27.0498 13.5392 27.6797 13.9292 28.0697C14.3202 28.4597 14.9532 28.4597 15.3432 28.0697L16.0502 27.3598C16.4412 26.9698 16.4412 26.3397 16.0502 25.9497Z" fill="#83899F"/>
<path d="M28.071 28.0697C27.68 28.4597 27.047 28.4597 26.657 28.0697L25.95 27.3598C25.559 26.9698 25.559 26.3397 25.95 25.9497C26.34 25.5597 26.973 25.5597 27.364 25.9497L28.071 26.6598C28.461 27.0498 28.461 27.6797 28.071 28.0697Z" fill="#83899F"/>
<path d="M21 28C20.448 28 20 28.45 20 29V30C20 30.55 20.448 31 21 31C21.552 31 22 30.55 22 30V29C22 28.45 21.552 28 21 28Z" fill="#83899F"/>
<path d="M30 20C30.552 20 31 20.45 31 21C31 21.55 30.552 22 30 22H29C28.448 22 28 21.55 28 21C28 20.45 28.448 20 29 20H30Z" fill="#83899F"/>
<path d="M14 21C14 20.45 13.552 20 13 20H12C11.448 20 11 20.45 11 21C11 21.55 11.448 22 12 22H13C13.552 22 14 21.55 14 21Z" fill="#83899F"/>
</svg>
