<svg width="19" height="20" viewBox="0 0 19 20" fill="none" xmlns="http://www.w3.org/2000/svg">
<path d="M9 5.36719V8.14221" stroke="#CFD1D4" stroke-width="1.25" stroke-miterlimit="10" stroke-linecap="round"/>
<path d="M9.01984 1.66699C5.94984 1.66699 3.4698 4.14998 3.4698 7.21698V8.96698C3.4698 9.53298 3.22977 10.383 2.93977 10.867L1.87983 12.633C1.22983 13.725 1.67983 14.942 2.87983 15.342C6.86983 16.667 11.1799 16.667 15.1599 15.342C16.2799 14.967 16.7699 13.65 16.1599 12.633L15.0998 10.867C14.8098 10.383 14.5798 9.52498 14.5798 8.96698V7.21698C14.5698 4.16698 12.0698 1.66699 9.01984 1.66699Z" stroke="#CFD1D4" stroke-width="1.25" stroke-miterlimit="10" stroke-linecap="round"/>
<path d="M11.7698 15.6826C11.7698 17.2076 10.5198 18.4576 8.99976 18.4576C8.23976 18.4576 7.53979 18.1417 7.03979 17.6417C6.53979 17.1417 6.21973 16.4416 6.21973 15.6826" stroke="#CFD1D4" stroke-width="1.25" stroke-miterlimit="10"/>
<path d="M18.1699 4.58301C18.1699 2.51194 16.491 0.833008 14.4199 0.833008C12.3489 0.833008 10.6699 2.51194 10.6699 4.58301C10.6699 6.65408 12.3489 8.33301 14.4199 8.33301C16.491 8.33301 18.1699 6.65408 18.1699 4.58301Z" fill="#FEA450"/>
<path d="M18.1699 4.58301C18.1699 2.51194 16.491 0.833008 14.4199 0.833008C12.3489 0.833008 10.6699 2.51194 10.6699 4.58301C10.6699 6.65408 12.3489 8.33301 14.4199 8.33301C16.491 8.33301 18.1699 6.65408 18.1699 4.58301Z" stroke="#151924" stroke-width="1.66667"/>
</svg>
