<svg width="42" height="42" viewBox="0 0 42 42" fill="none" xmlns="http://www.w3.org/2000/svg">
<path d="M28 0H14C6.26801 0 0 6.26801 0 14V28C0 35.732 6.26801 42 14 42H28C35.732 42 42 35.732 42 28V14C42 6.26801 35.732 0 28 0Z" fill="#0F1620"/>
<g filter="url(#filter0_d_0_1)">
<path d="M28 15.99L28.582 17V17.01C29.069 17.87 28.776 18.95 27.927 19.45C27.654 19.6 27.427 19.83 27.272 20.1C27.269 20.11 27.265 20.11 27.262 20.12C26.776 20.97 27.073 22.06 27.927 22.54C27.932 22.55 27.938 22.55 27.943 22.55C28.792 23.05 29.078 24.14 28.582 24.99L27.965 26.01C27.471 26.87 26.379 27.16 25.523 26.67C25.262 26.52 24.968 26.4401 24.666 26.4301H24.642C23.66 26.4401 22.869 27.24 22.876 28.22C22.869 29.21 22.069 30 21.085 30H19.915C18.926 30 18.124 29.2 18.124 28.21C18.121 27.91 18.038 27.61 17.885 27.35C17.882 27.35 17.879 27.34 17.876 27.34C17.383 26.49 16.297 26.2 15.45 26.7C15.446 26.7 15.442 26.7 15.438 26.7C14.572 27.18 13.483 26.87 13.005 26L12.414 24.98H12.41C11.921 24.12 12.216 23.04 13.068 22.55C13.623 22.23 13.964 21.64 13.964 21C13.964 20.36 13.623 19.77 13.068 19.45C12.215 18.95 11.921 17.86 12.414 17L13.039 15.97C13.533 15.12 14.625 14.8299 15.481 15.3199C15.741 15.4699 16.036 15.5501 16.338 15.5601C17.318 15.5601 18.119 14.77 18.133 13.79V13.78C18.133 12.8 18.928 12 19.911 12H21.085C21.104 12 21.124 12 21.143 12C22.132 12.03 22.907 12.86 22.876 13.85C22.879 14.15 22.961 14.45 23.115 14.7C23.117 14.71 23.119 14.71 23.121 14.71C23.621 15.56 24.713 15.84 25.557 15.34C26.414 14.85 27.505 15.14 28 15.99Z" stroke="#83899F" stroke-width="1.5" stroke-linecap="round" stroke-linejoin="round"/>
<path opacity="0.4" d="M22.9702 21.0002C22.9702 19.6402 21.8662 18.5303 20.5032 18.5303C19.1392 18.5303 18.0352 19.6402 18.0352 21.0002C18.0352 22.3602 19.1392 23.4702 20.5032 23.4702C21.8662 23.4702 22.9702 22.3602 22.9702 21.0002Z" stroke="#83899F" stroke-width="1.5" stroke-linecap="round" stroke-linejoin="round"/>
</g>
<defs>
<filter id="filter0_d_0_1" x="7.42383" y="9.25" width="26.1519" height="27.5" filterUnits="userSpaceOnUse" color-interpolation-filters="sRGB">
<feFlood flood-opacity="0" result="BackgroundImageFix"/>
<feColorMatrix in="SourceAlpha" type="matrix" values="0 0 0 0 0 0 0 0 0 0 0 0 0 0 0 0 0 0 127 0" result="hardAlpha"/>
<feOffset dy="2"/>
<feGaussianBlur stdDeviation="2"/>
<feColorMatrix type="matrix" values="0 0 0 0 0.0196078 0 0 0 0 0.0470588 0 0 0 0 0.14902 0 0 0 0.1 0"/>
<feBlend mode="normal" in2="BackgroundImageFix" result="effect1_dropShadow_0_1"/>
<feBlend mode="normal" in="SourceGraphic" in2="effect1_dropShadow_0_1" result="shape"/>
</filter>
</defs>
</svg>
