<svg width="35" height="35" viewBox="0 0 35 35" fill="none" xmlns="http://www.w3.org/2000/svg">
<path d="M35 17.5C35 7.83502 27.165 0 17.5 0C7.83502 0 0 7.83502 0 17.5C0 27.165 7.83502 35 17.5 35C27.165 35 35 27.165 35 17.5Z" fill="#3A96EA" fill-opacity="0.1"/>
<path d="M17.3197 23.4838C14.4097 23.4838 11.8097 21.4488 10.3397 18.0428C10.3097 17.9758 10.2998 17.9028 10.2998 17.8298C10.2998 17.7558 10.3097 17.6838 10.3397 17.6158C11.8097 14.2098 14.4097 12.1758 17.3197 12.1758C20.2197 12.1758 22.8298 14.2098 24.2998 17.6158C24.3198 17.6838 24.3397 17.7558 24.3397 17.8298C24.3397 17.9028 24.3198 17.9758 24.2998 18.0428C22.8298 21.4488 20.2197 23.4818 17.3197 23.4838ZM11.4298 17.8298C12.7298 20.6988 14.9197 22.4037 17.3197 22.4037C19.7197 22.4047 21.8997 20.6988 23.2097 17.8298C21.8997 14.9608 19.7098 13.2557 17.3098 13.2557C14.9098 13.2557 12.7298 14.9608 11.4298 17.8298Z" fill="#3A96EA"/>
<path d="M17.3201 20.5878C16.7701 20.5878 16.2402 20.4258 15.7902 20.1238C15.3302 19.8208 14.9802 19.3908 14.7702 18.8868C14.5602 18.3838 14.5102 17.8298 14.6202 17.2958C14.7202 16.7608 14.9802 16.2698 15.3702 15.8848C15.7502 15.4998 16.2502 15.2377 16.7802 15.1307C17.3102 15.0247 17.8702 15.0798 18.3702 15.2878C18.8802 15.4968 19.3102 15.8497 19.6102 16.3027C19.9102 16.7557 20.0701 17.2887 20.0701 17.8337C20.0701 18.5637 19.7802 19.2638 19.2602 19.7798C18.7502 20.2968 18.0501 20.5868 17.3201 20.5878ZM17.3201 16.1578C16.9901 16.1578 16.6602 16.2567 16.3902 16.4407C16.1102 16.6247 15.9002 16.8858 15.7702 17.1918C15.6402 17.4978 15.6102 17.8347 15.6702 18.1597C15.7402 18.4847 15.9002 18.7828 16.1302 19.0168C16.3702 19.2508 16.6702 19.4108 16.9902 19.4758C17.3102 19.5398 17.6502 19.5067 17.9602 19.3807C18.2602 19.2537 18.5302 19.0387 18.7102 18.7637C18.8902 18.4887 18.9902 18.1647 18.9902 17.8337C18.9902 17.3897 18.8102 16.9638 18.5002 16.6498C18.1902 16.3358 17.7601 16.1588 17.3201 16.1578Z" fill="#3A96EA"/>
</svg>
